# xmcd
#
# Track frame offsets:
#	150
#	4027
#	115930
#	199979
#	288352
#
# Disc length: 4693 seconds
#
# Revision: 1
# Processed by: cddbd v1.5.2PL0 Copyright (c) Steve Scherf et al.
# Submitted via: audiograbber 1.83.01
#
DISCID=40125305
DTITLE=Kempowski, Walter - Aus groﬂer Zeit - CD 2
DYEAR=1900
DGENRE=
TTITLE0=Musik
TTITLE1=Kapitel 3
TTITLE2=Kapitel 4, Die Wirtschafterin
TTITLE3=Kapitel 5
TTITLE4=Kapitel 6, Ein Schulfreund
EXTD=
EXTT0=
EXTT1=
EXTT2=
EXTT3=
EXTT4=
PLAYORDER=
